# xmcd
#
# Track frame offsets: 
#        150
#        16159
#        37240
#        59085
#        83338
#        101488
#        118313
#        145725
#        171202
#        187305
#
# Disc length: 2704 seconds
#
# Revision: 3
# Processed by: cddbd v1.5.2PL0 Copyright (c) Steve Scherf et al.
# Submitted via: ExactAudioCopy v1.0b4
#
DISCID=8c0a8e0a
DTITLE=Smokin' Joe Kubek and Bnois King - Take Your Best Shot
DYEAR=1998
DGENRE=Texas Blues
TTITLE0=Roll of the Dice
TTITLE1=Worst Heartache
TTITLE2=Take Your Best Shot
TTITLE3=Walk On
TTITLE4=Spanish Trace
TTITLE5=Damn Traffic
TTITLE6=You Said "I Love You" First
TTITLE7=One Night Affair
TTITLE8=So Blind
TTITLE9=Never Enough
EXTD=YEAR: 1998
EXTT0=
EXTT1=
EXTT2=
EXTT3=
EXTT4=
EXTT5=
EXTT6=
EXTT7=
EXTT8=
EXTT9=
PLAYORDER=
